# xmcd CD database file
#
# Track frame offsets:
#	150
#	12330
#	24211
#	36037
#	46667
#	57161
#	69792
#	82426
#	94458
#	105210
#	115749
#	127968
#	139041
#	150277
#	165507
#	177693
#	187659
#	197446
#	208858
#	220440
#	231069
#	240884
#	250793
#	261858
#	273332
#	283923
#	295884
#	305614
#	319158
#	332043
#	345386
#
# Disc length: 4799 seconds
#
# Revision: 0
# Processed by: cddbd v1.5.2PL0 Copyright (c) Steve Scherf et al.
# Submitted via: CDex 1.79
#
DISCID=ae12bd1f
DTITLE=Various Artist - The Jim Reeves Connection
DYEAR=1900
DGENRE=Country
TTITLE0=Charlie Rich - Gentleman Jim
TTITLE1=Jim Reeves - Mexican Joe
TTITLE2=Carolyn Bradshaw - The Marriage Of Mexican Joe
TTITLE3=Mary Jo-Chelette and The Western Cherokees - The Son Of Mexican Joe
TTITLE4=Hank Snow - When Mexican Joe Met Jole Blonde
TTITLE5=Jim Reeves - Bimbo
TTITLE6=Rod Morris - Bimbo
TTITLE7=Rod Morris - Bimbo #2
TTITLE8=Billy Brown - He`ll Have To Go
TTITLE9=Jim Reeves - He`ll Have To Go
TTITLE10=Jeannie Black - He`ll Have To Stay
TTITLE11=Kitty Wells - She`ll Have To Go
TTITLE12=Homer and Jethro - He`ll Have To Go
TTITLE13=Jim Reeves - The Blizzard
TTITLE14=Marianne - Home To Marianne
TTITLE15=Anita Carter - Blue Doll
TTITLE16=Jim Reeves - Blue Boy
TTITLE17=Ginny Wright and Jim Reeves - I Love You
TTITLE18=Alvadean Coker and Jim Reeves - Are You The One
TTITLE19=Carol Johnson and Jim Reeves - Mother Of A Honky Tonk Girl
TTITLE20=Dottie Dillard and Jim Reeves - But You Love Me Daddy
TTITLE21=Steve Moore and Jim Reeves - But You Love Me Daddy
TTITLE22=Dottie West and Jim Reeves - Look Who`s Talking?
TTITLE23=Dottie West and Jim Reeves - Love Is No Excuse
TTITLE24=Deborah Allen and Jim Reeves - Don`t Let Me Cross Over
TTITLE25=Deborah Allen and Jim Reeves - Take Me In Your Arms And Hold Me
TTITLE26=Deborah Allen and Jim Reeves - Oh, How I Miss You Tonight
TTITLE27=Patsy Cline and Jim Reeves - Have You Ever Been Lonely
TTITLE28=Patsy Cline and Jim Reeves - I Fall To Pieces
TTITLE29=Eddie Clatterbuck - I Saw Jim Reeves Up There
TTITLE30=Faron Young - Gentleman Jim
EXTD=
EXTT0=
EXTT1=
EXTT2=
EXTT3=
EXTT4=
EXTT5=
EXTT6=
EXTT7=
EXTT8=
EXTT9=
EXTT10=
EXTT11=
EXTT12=
EXTT13=
EXTT14=
EXTT15=
EXTT16=
EXTT17=
EXTT18=
EXTT19=
EXTT20=
EXTT21=
EXTT22=
EXTT23=
EXTT24=
EXTT25=
EXTT26=
EXTT27=
EXTT28=
EXTT29=
EXTT30=
PLAYORDER=
